# This file uses centimeters as units for non-parametric coordinates.

mtllib holder.mtl
g default
v 6.017588 -1.187286 1.215800
v 6.029709 -1.187286 1.148298
v 6.338128 -1.176253 1.273344
v 6.350243 -1.176253 1.205842
v 5.951297 -1.187286 1.196933
v 5.956836 -1.187286 1.204895
v 5.968955 -1.187286 1.137391
v 5.960993 -1.187286 1.142929
v 6.430888 -1.176253 1.227285
v 6.425348 -1.176253 1.219324
v 6.413231 -1.176253 1.286827
v 6.421192 -1.176253 1.281289
v 6.050056 1.929069 1.221629
v 6.067124 1.936252 1.224693
v 6.079244 1.936252 1.157191
v 6.062176 1.929069 1.154127
v 6.017588 1.885269 1.215800
v 6.025113 1.903728 1.217151
v 6.037234 1.903728 1.149649
v 6.029709 1.885269 1.148298
v 6.330838 1.903488 1.272036
v 6.338128 1.885607 1.273344
v 6.350243 1.885607 1.205842
v 6.342953 1.903488 1.204533
v 6.288396 1.936252 1.264416
v 6.305799 1.928928 1.267541
v 6.317914 1.928928 1.200037
v 6.300511 1.936252 1.196913
v 5.951297 1.978933 1.196933
v 5.958162 1.995770 1.198166
v 5.964284 1.993522 1.206232
v 5.956836 1.974992 1.204895
v 5.978184 2.016109 1.201760
v 5.994756 2.023083 1.204734
v 5.996842 2.016225 1.212076
v 5.979691 2.009175 1.208997
v 5.967858 1.995770 1.144162
v 5.960993 1.978933 1.142929
v 5.968955 1.974992 1.137391
v 5.976402 1.993522 1.138728
v 6.004448 2.023083 1.150730
v 5.987876 2.016109 1.147755
v 5.991808 2.009175 1.141494
v 6.008960 2.016225 1.144573
v 6.404003 2.016109 1.222459
v 6.387431 2.023083 1.219485
v 6.385133 2.016225 1.212105
v 6.402632 2.009035 1.215246
v 6.430888 1.978933 1.227285
v 6.424024 1.995770 1.226053
v 6.418182 1.993237 1.218037
v 6.425348 1.975260 1.219324
v 6.377737 2.023083 1.273488
v 6.394310 2.016109 1.276463
v 6.390514 2.009036 1.282749
v 6.373015 2.016225 1.279608
v 6.414328 1.995770 1.280057
v 6.421192 1.978933 1.281289
v 6.413231 1.975260 1.286827
v 6.406064 1.993237 1.285540
vt 0.147849 0.452300
vt 0.147849 0.449378
vt 0.157880 0.449378
vt 0.157880 0.452300
vt 0.147849 0.000002
vt 0.157880 0.000002
vt 0.147849 0.457542
vt 0.157880 0.457542
vt 0.147848 0.504056
vt 0.147848 0.501225
vt 0.157879 0.501228
vt 0.157878 0.504059
vt 0.147849 0.495964
vt 0.157880 0.495966
vt 0.157749 0.951870
vt 0.147719 0.951867
vt 0.136999 0.536919
vt 0.137023 0.534320
vt 0.145006 0.534305
vt 0.145027 0.536912
vt 0.135584 0.537373
vt 0.135532 0.533970
vt 0.137023 0.530206
vt 0.145002 0.530183
vt 0.144944 1.000000
vt 0.136913 0.999994
vt 0.135494 0.999993
vt 0.135585 0.530437
vt 0.146364 1.000000
vt 0.146441 0.537370
vt 0.144908 0.461471
vt 0.144887 0.464067
vt 0.136897 0.464078
vt 0.136880 0.461474
vt 0.146323 0.461056
vt 0.146371 0.464360
vt 0.144880 0.468179
vt 0.136907 0.468205
vt 0.136864 0.000003
vt 0.144895 0.000002
vt 0.146315 0.000003
vt 0.146320 0.467919
vt 0.135445 0.000004
vt 0.135465 0.461056
vt 0.019545 0.013568
vt 0.009672 0.011796
vt 0.011644 0.000812
vt 0.012809 0.000001
vt 0.020707 0.001420
vt 0.021517 0.002584
vt 0.022918 0.010050
vt 0.022108 0.008886
vt 0.023703 0.000000
vt 0.033576 0.001773
vt 0.031981 0.010658
vt 0.030817 0.011468
vt 0.147849 0.460287
vt 0.157880 0.460287
vt 0.157880 0.493166
vt 0.147849 0.493166
vt 0.136997 0.527601
vt 0.145029 0.527587
vt 0.135583 0.527247
vt 0.136878 0.470803
vt 0.144909 0.470785
vt 0.146441 0.527229
vt 0.146441 0.530419
vt 0.135460 0.471193
vt 0.146329 0.471171
vt 0.146496 0.533960
vt 0.135467 0.467939
vt 0.013742 0.459413
vt 0.016259 0.460472
vt 0.005898 0.472261
vt 0.003369 0.471222
vt 0.048878 0.460472
vt 0.061353 0.472261
vt 0.001098 0.468914
vt 0.010065 0.455677
vt 0.051444 0.459392
vt 0.063932 0.471201
vt 0.008956 0.452956
vt 0.000000 0.466183
vt 0.055135 0.455642
vt 0.135413 0.464367
vt 0.000000 0.000002
vt 0.008956 0.000002
vt 0.056210 0.453006
vt 0.067281 0.466222
vt 0.056210 0.001629
vt 0.067281 0.001629
vt 0.083966 0.011792
vt 0.081449 0.012851
vt 0.071076 0.001042
vt 0.073604 0.000002
vt 0.077773 0.016587
vt 0.129059 0.000002
vt 0.116585 0.011792
vt 0.076663 0.019308
vt 0.067707 0.006081
vt 0.119150 0.012872
vt 0.131639 0.001062
vt 0.067707 0.472260
vt 0.076663 0.472260
vt 0.122841 0.016622
vt 0.133931 0.003391
vt 0.123916 0.019258
vt 0.134988 0.006041
vt 0.134988 0.470634
vt 0.123916 0.470634
vt 0.066225 0.468872
vt 0.068805 0.003349
vn 0.000000 -1.000000 0.000001
vn 0.000000 -1.000000 0.000001
vn 0.000000 -1.000000 0.000001
vn 0.000000 -1.000000 0.000001
vn 0.000000 -1.000000 0.000001
vn 0.000000 -1.000000 0.000001
vn 0.000000 -1.000000 -0.000001
vn 0.000000 -1.000000 -0.000001
vn 0.000000 -1.000000 -0.000001
vn 0.000000 -1.000000 -0.000001
vn 0.000000 -1.000000 -0.000001
vn 0.000000 -1.000000 -0.000001
vn -0.176694 -0.000002 0.984266
vn -0.176697 -0.000005 0.984265
vn -0.176697 -0.000005 0.984265
vn -0.176693 -0.000002 0.984266
vn 0.029185 -0.999560 0.005238
vn 0.596554 -0.795393 0.107114
vn 0.596552 -0.795395 0.107113
vn 0.029183 -0.999560 0.005238
vn 0.176698 -0.000003 -0.984265
vn 0.176695 -0.000003 -0.984266
vn 0.176695 -0.000003 -0.984266
vn 0.176697 -0.000003 -0.984265
vn -0.176681 -0.000000 0.984268
vn -0.176694 -0.000004 0.984266
vn -0.176693 -0.000002 0.984266
vn -0.176681 -0.000000 0.984268
vn 0.786227 -0.601595 0.141176
vn 0.984254 -0.002473 0.176741
vn 0.984254 -0.002474 0.176741
vn 0.786224 -0.601599 0.141176
vn 0.176695 -0.000001 -0.984266
vn 0.176700 0.000000 -0.984265
vn 0.176700 0.000000 -0.984265
vn 0.176694 -0.000002 -0.984266
vn -0.176694 -0.000006 0.984266
vn -0.176696 -0.000000 0.984266
vn -0.176695 -0.000000 0.984266
vn -0.176697 -0.000004 0.984265
vn -0.984271 -0.002405 -0.176651
vn -0.784318 -0.604177 -0.140763
vn -0.784315 -0.604182 -0.140763
vn -0.984271 -0.002405 -0.176651
vn 0.176687 -0.000000 -0.984267
vn 0.176693 -0.000004 -0.984266
vn 0.176695 -0.000004 -0.984266
vn 0.176687 -0.000000 -0.984267
vn -0.176697 -0.000005 0.984265
vn -0.176697 -0.000001 0.984265
vn -0.176698 -0.000001 0.984265
vn -0.176696 -0.000004 0.984265
vn -0.595475 -0.796234 -0.106870
vn -0.029716 -0.999544 -0.005335
vn -0.029713 -0.999544 -0.005334
vn -0.595467 -0.796240 -0.106869
vn 0.176698 -0.000002 -0.984265
vn 0.176698 -0.000002 -0.984265
vn 0.176698 -0.000002 -0.984265
vn 0.176698 -0.000003 -0.984265
vn -0.984259 0.002191 -0.176717
vn -0.793189 0.592095 -0.142392
vn -0.793187 0.592098 -0.142391
vn -0.984259 0.002191 -0.176717
vn -0.684719 0.373532 0.625806
vn -0.820401 0.002267 0.571785
vn -0.820639 0.001215 0.571446
vn -0.668030 0.408134 0.622224
vn -0.582747 0.805894 -0.104600
vn -0.016907 0.999852 -0.003034
vn -0.016909 0.999853 -0.003035
vn -0.582753 0.805889 -0.104601
vn -0.141106 0.703371 0.696676
vn -0.507362 0.565113 0.650562
vn -0.529846 0.553023 0.642984
vn -0.135059 0.704788 0.696443
vn -0.570299 0.002267 -0.821434
vn -0.424312 0.373514 -0.824892
vn -0.409909 0.408106 -0.815735
vn -0.570640 0.001215 -0.821199
vn -0.249407 0.565070 -0.786443
vn 0.110030 0.703378 -0.702248
vn 0.115623 0.704798 -0.699923
vn -0.273095 0.552999 -0.787154
vn 0.582744 0.805895 0.104606
vn 0.016907 0.999852 0.003035
vn 0.016908 0.999852 0.003035
vn 0.582746 0.805894 0.104606
vn 0.141722 0.702999 -0.696927
vn 0.504687 0.564535 -0.653140
vn 0.530002 0.551374 -0.644270
vn 0.134959 0.704681 -0.696571
vn 0.984259 0.002198 0.176716
vn 0.793201 0.592077 0.142398
vn 0.793198 0.592080 0.142397
vn 0.984259 0.002198 0.176716
vn 0.684880 0.379380 -0.622101
vn 0.820384 0.002157 -0.571809
vn 0.820576 0.001227 -0.571536
vn 0.670411 0.407862 -0.619837
vn 0.245989 0.564480 0.787941
vn -0.109546 0.702984 0.702719
vn -0.115765 0.704668 0.700030
vn 0.272793 0.551331 0.788428
vn 0.570387 0.002157 0.821374
vn 0.425756 0.379368 0.821469
vn 0.412973 0.407840 0.814321
vn 0.570661 0.001227 0.821185
vn 0.984257 0.000000 0.176742
vn 0.984257 0.000000 0.176742
vn -0.984273 0.000000 -0.176652
vn -0.984273 0.000000 -0.176652
vn -0.820912 0.000000 0.571054
vn -0.820912 0.000000 0.571054
vn -0.571033 0.000000 -0.820927
vn -0.571033 0.000000 -0.820927
vn 0.820828 0.000000 -0.571176
vn 0.820828 0.000000 -0.571176
vn 0.571023 0.000000 0.820934
vn 0.571023 0.000000 0.820934
vn -0.176681 0.000000 0.984268
vn -0.176681 0.000000 0.984268
vn 0.176700 0.000000 -0.984265
vn 0.176700 0.000000 -0.984265
vn -0.984262 0.000000 -0.176718
vn -0.984262 0.000000 -0.176718
vn 0.984262 0.000000 0.176717
vn 0.984262 0.000000 0.176717
vn -0.176696 0.000000 0.984266
vn -0.176696 0.000000 0.984266
vn 0.176687 0.000000 -0.984267
vn 0.176687 0.000000 -0.984267
s off
g pCube1
usemtl initialShadingGroup
f 3/45/1 4/46/2 10/47/3 9/48/4 12/49/5 11/50/6
f 8/51/7 7/52/8 2/53/9 1/54/10 6/55/11 5/56/12
s 1
f 13/72/13 14/73/14 35/74/15 36/75/16
s 2
f 14/57/17 13/7/18 16/8/19 15/58/20
s 3
f 15/92/21 16/93/22 43/94/23 44/95/24
s 1
f 17/82/25 18/79/26 31/78/27 32/83/28
s 2
f 18/1/29 17/2/30 20/3/31 19/4/32
s 3
f 19/96/33 20/99/34 39/100/35 40/112/36
s 1
f 21/84/37 22/88/38 59/89/39 60/111/40
s 2
f 22/9/41 21/10/42 24/11/43 23/12/44
s 3
f 23/107/45 24/105/46 51/106/47 52/108/48
s 1
f 25/76/49 26/80/50 55/81/51 56/77/52
s 2
f 26/13/53 25/60/54 28/59/55 27/14/56
s 3
f 27/101/57 28/98/58 47/97/59 48/102/60
s 9
f 29/17/61 30/18/62 37/19/63 38/20/64
s 10
f 30/18/65 29/17/66 32/21/67 31/22/68
s 9
f 33/23/69 34/61/70 41/62/71 42/24/72
s 10
f 34/61/73 33/23/74 36/28/75 35/63/76
s 12
f 38/20/77 37/19/78 40/70/79 39/30/80
f 42/24/81 41/62/82 44/66/83 43/67/84
s 9
f 45/37/85 46/65/86 53/64/87 54/38/88
s 12
f 46/65/89 45/37/90 48/42/91 47/69/92
s 9
f 49/31/93 50/32/94 57/33/95 58/34/96
s 12
f 50/32/97 49/31/98 52/35/99 51/36/100
s 10
f 54/38/101 53/64/102 56/68/103 55/71/104
f 58/34/105 57/33/106 60/85/107 59/44/108
s 2
f 1/5/109 2/6/110 20/3/31 17/2/30
f 14/57/17 15/58/20 28/59/55 25/60/54
f 22/9/41 23/12/44 4/15/111 3/16/112
f 13/7/18 18/1/29 19/4/32 16/8/19
f 21/10/42 26/13/53 27/14/56 24/11/43
s 10
f 5/26/113 6/27/114 32/21/67 29/17/66
f 30/18/65 31/22/68 36/28/75 33/23/74
s 12
f 7/29/115 8/25/116 38/20/77 39/30/80
f 40/70/79 37/19/78 42/24/81 43/67/84
f 44/66/83 41/62/82 46/65/89 47/69/92
f 48/42/91 45/37/90 50/32/97 51/36/100
s 10
f 34/61/73 35/63/76 56/68/103 53/64/102
f 54/38/101 55/71/104 60/85/107 57/33/106
s 12
f 9/40/117 10/41/118 52/35/99 49/31/98
s 10
f 11/43/119 12/39/120 58/34/105 59/44/108
s 1
f 32/83/28 6/86/121 1/87/122 17/82/25
s 9
f 41/62/71 34/61/70 53/64/87 46/65/86
s 3
f 7/103/123 39/100/35 20/99/34 2/104/124
s 9
f 38/20/64 8/25/125 5/26/126 29/17/61
f 49/31/93 58/34/96 12/39/127 9/40/128
s 1
f 35/74/15 14/73/14 25/76/49 56/77/52
f 59/89/39 22/88/38 3/90/129 11/91/130
s 9
f 30/18/62 33/23/69 42/24/72 37/19/63
f 50/32/94 45/37/85 54/38/88 57/33/95
s 3
f 15/92/21 44/95/24 47/97/59 28/98/58
f 23/107/45 52/108/48 10/109/131 4/110/132
s 1
f 13/72/13 36/75/16 31/78/27 18/79/26
s 3
f 16/93/22 19/96/33 40/112/36 43/94/23
s 1
f 21/84/37 60/111/40 55/81/51 26/80/50
s 3
f 24/105/46 27/101/57 48/102/60 51/106/47
