# ProBuilder 5.0.7
# https://unity3d.com/unity/features/worldbuilding/probuilder
# 11/17/2023 3:56:29 PM

mtllib ./train_line1.mtl
o train line1

g train line
v 8.67622 30.64445 330.0537
v -8.676903 30.64445 330.0537
v 8.67622 36.99158 330.0537
v -8.676903 36.99158 330.0537
v -3.52687 16.23993 144.7559
v -20.87998 16.23993 144.7559
v 8.676526 13.92471 190.0342
v -8.676617 13.92471 190.0341
v -3.52687 22.58706 144.7559
v 8.676526 20.27184 190.0342
v -20.87998 22.58706 144.7559
v -8.676617 20.27184 190.0341
v 8.676316 18.8709 258.8358
v -8.676806 18.8709 258.8358
v 8.676316 25.21804 258.8358
v -8.676806 25.21804 258.8358
v -797.1666 179.6509 -205.4036
v -779.8436 178.9538 -205.4128
v -1001.321 259.2859 -290.2979
v -983.9977 258.5887 -290.3071
v -796.623 185.9496 -205.2359
v -1000.777 265.5846 -290.1303
v -779.2999 185.2525 -205.2452
v -983.4536 264.8874 -290.1394
v -1101.023 350.8329 -392.9289
v -1083.67 350.8329 -392.9288
v -1101.023 357.18 -392.9289
v -1083.67 357.18 -392.9289
v -928.28 471.8849 -538.1321
v -911.9258 471.883 -536.9294
v -928.2917 478.2321 -538.1282
v -911.9376 478.2301 -536.9255
v -715.0397 513.6269 -619.8885
v -698.686 513.6249 -618.6859
v -715.0515 519.9742 -619.8846
v -698.6977 519.9721 -618.6819
v -298.2303 51.82333 -53.45667
v -298.2304 58.17046 -53.45665
v -280.8773 51.82332 -53.45665
v -280.8772 58.17044 -53.45666
v -0.4103546 -11.14634 44.90681
v -0.4103326 -4.799203 44.90681
v 16.94278 -4.799219 44.90681
v 16.94278 -11.14634 44.90681
v 3312.197 377.1573 -610.0297
v 3314.162 377.2068 -608.2552
v 3312.24 373.2568 -610.0342
v 3314.205 373.3067 -608.2599
v -249.4432 553.5377 -673.9775
v -258.3915 553.4966 -676.5771
v -258.3438 547.149 -676.5843
v -249.3956 547.1902 -673.9849
v 191.2109 554.3209 -685.6347
v 186.5734 554.2849 -687.4563
v 186.6103 550.0693 -687.4612
v 191.2477 550.1055 -685.6398
v 612.8718 545.4187 -677.2227
v 610.9069 545.3692 -678.9971
v 610.95 541.4687 -679.0017
v 612.9147 541.5186 -677.2272
v 1271.316 465.0858 -628.6234
v 1269.351 465.0363 -630.3978
v 1269.394 461.1359 -630.4023
v 1271.359 461.1857 -628.6279
v 1624.802 409.3203 -601.7028
v 1622.837 409.2708 -603.4772
v 1622.88 405.3703 -603.4817
v 1624.845 405.4202 -601.7074
v 2110.999 370.5716 -567.0328
v 2109.034 370.5222 -568.8072
v 2109.078 366.6216 -568.8117
v 2111.042 366.6715 -567.0375
v 2610.139 373.572 -553.3423
v 2608.173 373.5226 -555.1168
v 2608.217 369.6221 -555.1213
v 2610.181 369.6719 -553.347

vt 8.67622 30.64445
vt -8.676903 30.64445
vt 8.67622 36.99158
vt -8.676903 36.99158
vt -3.52687 143.7377
vt -20.87998 143.7377
vt 8.676526 189.0751
vt -8.676617 189.0751
vt -138.8506 22.58706
vt -138.8506 16.23993
vt -185.7446 20.27184
vt -185.7446 13.92471
vt 134.3348 16.23993
vt 134.3348 22.58706
vt 181.2287 13.92471
vt 181.2287 20.27184
vt 20.87998 143.4136
vt 3.52687 143.4136
vt 8.676617 188.751
vt -8.676526 188.751
vt 8.676524 190.5435
vt -8.676619 190.5434
vt 8.676313 259.5226
vt -8.676809 259.5226
vt -190.0341 20.27184
vt -190.0341 13.92471
vt -258.8358 25.21804
vt -258.8358 18.8709
vt 190.0342 13.92471
vt 190.0342 20.27184
vt 258.8358 18.8709
vt 258.8358 25.21804
vt 8.67662 190.9986
vt -8.676523 190.9986
vt 8.676809 259.9778
vt -8.676313 259.9778
vt 8.676316 258.4476
vt -8.676806 258.4476
vt 8.67622 330.6322
vt -8.676903 330.6322
vt -330.0537 36.99158
vt -330.0537 30.64445
vt 330.0537 30.64445
vt 330.0537 36.99158
vt 8.676806 259.4828
vt -8.676316 259.4828
vt 8.676903 331.6674
vt -8.67622 331.6674
vt -803.8116 -251.8923
vt -786.4745 -251.9043
vt -1011.035 -362.7358
vt -993.6976 -362.7478
vt -814.7079 184.9982
vt -815.2744 178.6993
vt -1035.809 264.6359
vt -1036.375 258.337
vt 799.263 178.0569
vt 798.6964 184.3558
vt 1020.364 257.6945
vt 1019.797 263.9934
vt 786.1876 -255.8363
vt 803.5247 -255.8242
vt 993.4103 -366.6795
vt 1010.748 -366.6675
vt -1011.037 -362.5814
vt -993.6998 -362.5935
vt -1114.379 -497.3953
vt -1097.041 -497.8529
vt -919.5858 245.2336
vt -920.0923 238.9296
vt -1063.122 336.9064
vt -1063.122 330.5646
vt 906.9127 238.5832
vt 906.4063 244.8873
vt 1049.921 330.906
vt 1049.921 337.2477
vt 993.4117 -366.5042
vt 1010.749 -366.4922
vt 1097.298 -501.9092
vt 1114.637 -501.4499
vt -1101.023 -526.4575
vt -1083.67 -526.4575
vt -928.2802 -715.5013
vt -911.926 -714.5764
vt 589.9665 357.175
vt 589.9667 350.8279
vt 364.3146 478.2271
vt 364.303 471.8799
vt -577.9545 350.8526
vt -577.9545 357.1997
vt -353.829 471.9026
vt -353.8405 478.2498
vt 1083.67 -530.6118
vt 1101.022 -530.6118
vt 911.9368 -718.7289
vt 928.291 -719.6509
vt -913.0107 -691.8657
vt -896.6647 -690.5573
vt -698.5653 -780.8098
vt -682.2197 -779.5015
vt 674.1363 478.2967
vt 674.124 471.9495
vt 445.7605 520.0387
vt 445.7481 513.6914
vt -659.2834 471.947
vt -659.2958 478.2941
vt -430.9079 513.689
vt -430.9203 520.0361
vt 896.4795 -693.0531
vt 912.8256 -694.3616
vt 682.0347 -781.9978
vt 698.3804 -783.3062
vt -254.8574 51.84512
vt -723.7858 179.703
vt -723.2734 186.0018
vt -254.8575 58.19225
vt 711.1139 178.9527
vt 242.1502 51.8229
vt 242.1502 58.17002
vt 710.6014 185.2514
vt 298.9415 -67.65492
vt 798.9086 -249.5518
vt 781.5781 -249.4127
vt 281.5897 -67.7227
vt -779.8436 -253.5382
vt -797.1666 -253.7633
vt -298.2303 -67.74261
vt -280.8773 -67.74259
vt 83.2415 16.25592
vt 30.26803 -11.14193
vt 30.26804 -4.794791
vt 83.2415 22.60305
vt -95.95015 16.23963
vt -95.95015 22.58676
vt -42.97941 -4.799277
vt -42.97941 -11.1464
vt -17.00206 44.12442
vt 0.3496677 44.19219
vt 3.811949 130.6967
vt 21.16367 130.7645
vt -20.87998 130.9225
vt -3.526868 130.9225
vt 16.94278 46.04399
vt -0.4103561 46.04398
vt -2050.005 355.0437
vt -2052.653 355.0932
vt -2050.034 351.1431
vt -2052.682 351.193
vt 683.9435 -769.999
vt 700.291 -771.2858
vt 233.9284 -829.1619
vt 242.8744 -831.6656
vt 633.2146 519.7055
vt 633.2024 513.3582
vt 173.0489 553.2279
vt 173.0007 546.8804
vt -700.7939 -766.7362
vt -684.4463 -765.4532
vt -243.3548 -827.2236
vt -234.4088 -824.7166
vt -617.8548 513.3488
vt -617.8669 519.696
vt -165.1741 546.9141
vt -165.2222 553.2615
vt 248.3289 -669.0341
vt 257.2773 -671.6339
vt -192.3259 -680.6918
vt -187.6883 -682.5135
vt 241.7762 552.8539
vt 241.7283 546.5064
vt -203.3217 553.6423
vt -203.3587 549.4266
vt -254.8311 -679.9962
vt -245.8828 -677.3967
vt 190.1326 -690.8734
vt 194.7701 -689.052
vt -231.4836 546.5401
vt -231.5314 552.8876
vt 209.3138 549.4554
vt 209.2768 553.6708
vt -178.606 -640.4933
vt -173.9706 -642.3203
vt -600.3604 -632.0562
vt -598.3971 -633.8325
vt -172.8149 553.3534
vt -172.8517 549.1378
vt -597.2327 544.4377
vt -597.2757 540.5372
vt 174.5943 -643.9358
vt 179.2299 -642.1092
vt 599.0207 -635.4523
vt 600.9839 -633.6759
vt 177.5141 549.1563
vt 177.4774 553.3716
vt 599.265 540.5693
vt 599.2222 544.4695
vt -534.328 -559.124
vt -532.3874 -560.9256
vt -1197.599 -509.7785
vt -1195.659 -511.5801
vt -559.0947 543.9335
vt -559.1373 540.033
vt -1219.33 463.6005
vt -1219.372 459.7
vt 532.943 -561.4523
vt 534.8834 -559.6506
vt 1196.214 -512.105
vt 1198.155 -510.3033
vt 561.2294 540.0989
vt 561.1868 543.9991
vt 1221.465 459.7659
vt 1221.422 463.666
vt -1172.369 -470.0565
vt -1170.442 -471.8726
vt -1530.179 -442.5038
vt -1528.251 -444.3198
vt -1217.587 463.5869
vt -1217.63 459.6864
vt -1572.096 407.8213
vt -1572.139 403.9207
vt 1171.147 -472.5565
vt 1173.073 -470.7404
vt 1528.956 -445.0028
vt 1530.883 -443.1868
vt 1219.725 459.7429
vt 1219.682 463.643
vt 1574.234 403.9772
vt 1574.192 407.8773
vt -1582.289 -528.3067
vt -1580.335 -530.095
vt -2070.008 -493.3642
vt -2068.055 -495.1526
vt -1575.691 407.8712
vt -1575.734 403.9707
vt -2063.123 369.1226
vt -2063.166 365.222
vt 1580.714 -530.4396
vt 1582.667 -528.6513
vt 2068.434 -495.4962
vt 2070.386 -493.7079
vt 1577.82 404.0252
vt 1577.778 407.9253
vt 2065.252 365.2765
vt 2065.21 369.1766
vt -2112.974 -559.0454
vt -2111.008 -560.8203
vt -2612.122 -545.3517
vt -2610.156 -547.1266
vt -2092.651 369.6044
vt -2092.695 365.7038
vt -2591.978 372.6047
vt -2592.021 368.7043
vt 2111.028 -560.8097
vt 2112.992 -559.035
vt 2610.176 -547.1159
vt 2612.141 -545.3412
vt 2094.707 365.7321
vt 2094.665 369.6322
vt 2594.034 368.7325
vt 2593.992 372.6326
vt -2612.602 -545.9689
vt -2610.636 -547.7438
vt -3316.634 -600.8933
vt -3314.668 -602.6682
vt -2643.443 373.427
vt -2643.487 369.5265
vt -3349.605 377.0618
vt -3349.648 373.1613
vt 2610.659 -547.7518
vt 2612.624 -545.9771
vt 3314.691 -602.6763
vt 3316.656 -600.9017
vt 2645.308 369.5483
vt 2645.265 373.4484
vt 3351.469 373.1831
vt 3351.427 377.0832

vn 0 0 1
vn 0 -0.9986953 -0.05106648
vn 0.9655457 0 -0.2602337
vn -0.9655458 0 0.2602332
vn 0 0.9986953 0.05106635
vn -1.26103E-07 -0.9974259 0.07170565
vn 1 0 3.049468E-06
vn -1 0 -2.758381E-06
vn 1.261029E-07 0.9974259 -0.07170562
vn 0 -0.986609 0.1631034
vn 0 0.986609 -0.1631034
vn -0.03113943 -0.7652604 -0.6429672
vn -0.3811874 0.008294423 0.9244606
vn 0.3811867 -0.008295844 -0.9244609
vn 0.03114013 0.7652613 0.6429661
vn -0.03095919 -0.760649 -0.6484248
vn -0.01547966 -0.7521793 -0.6584638
vn -1.322622E-07 -0.7437097 -0.6685028
vn -0.6967968 0.04107587 0.7160914
vn -0.7070273 0.02054819 0.7064496
vn -0.7172577 2.049527E-05 0.6968079
vn 0.6979433 -0.0412518 -0.7149639
vn 0.706979 -0.02062237 -0.7065245
vn 0.7160148 7.057735E-06 -0.6980851
vn 0.03086946 0.7584981 0.6509438
vn 0.01543414 0.7525585 0.6580979
vn -1.169958E-06 0.7466189 0.6652521
vn -2.246748E-07 -0.768093 -0.6403384
vn 0.02241759 -0.7792451 -0.625645
vn 0.0448354 -0.7903972 -0.6109518
vn -0.6434676 5.014489E-06 -0.7654734
vn -0.6433132 -0.0003519103 -0.7656029
vn -0.6431589 -0.0007088351 -0.7657325
vn 0.642492 1.972542E-05 0.7662925
vn 0.6422224 0.0007066253 0.7665181
vn -1.13167E-06 0.7654622 0.643481
vn -0.02230278 0.7791206 0.6256781
vn -0.04460442 0.7927789 0.6078751
vn 0.02885212 -0.9187343 -0.3938208
vn -0.3579775 -7.730533E-05 -0.9337302
vn 0.3579783 7.730805E-05 0.9337299
vn -0.02884768 0.9187304 0.3938303
vn -0.2913667 -0.0001583176 0.9566114
vn 0.2914038 0.0003096525 -0.9566001
vn 0.01656431 0.7911342 0.6098641
vn 0.03312794 0.8155178 0.577783
vn 6.74211E-07 0.7667506 0.6419451
vn -0.01656803 -0.7913638 -0.6095642
vn -0.0331363 -0.8157501 -0.5774546
vn 2.270266E-07 -0.7669776 -0.6416739
vn -0.9796263 0 -0.200829
vn -0.3136157 5.160522E-07 0.94955
vn 0.9796263 0 0.2008292
vn 0.3136153 -1.793237E-06 -0.9495502
vn 1.044221E-06 0.8422066 0.539155
vn 4.239968E-07 0.9643835 -0.2645078
vn 0 -0.9643835 0.2645079
vn 1.185217E-07 -0.842205 -0.5391575
vn 0.6700106 0.008270833 -0.7423055
vn -0.02603284 0.9342701 0.3556146
vn -0.03902707 0.9597204 0.2595574
vn -0.0520213 0.9851708 0.1635001
vn -0.1232279 0.0003820337 -0.9923783
vn 0.02551355 -0.9369693 -0.3484791
vn 0.039262 -0.9607584 -0.2576903
vn 0.05301046 -0.9845475 -0.1669016
vn 0.1221879 -0.0003947696 0.9925069
vn -0.002012061 0.9999586 -0.008874551
vn -0.002066968 0.9999268 -0.01160293
vn -0.002121875 0.999895 -0.01433132
vn -0.02444381 0.0009410003 -0.9997008
vn 0.006410155 -0.99996 -0.006241178
vn 0.006550474 -0.9999668 -0.001702871
vn 0.006690792 -0.9999736 0.002835436
vn 0.02644681 -0.0009551821 0.9996498
vn 0.02258319 0.9967626 -0.07716452
vn 0.0223009 0.9975773 -0.06469916
vn 0.0220186 0.9983921 -0.05223379
vn 0.01995951 0.001347266 -0.9997999
vn -0.02170267 -0.9969425 0.07506468
vn -0.02153334 -0.9976879 0.06338879
vn -0.02136401 -0.9984335 0.0517129
vn -0.01997469 -0.001376284 0.9997995
vn 0.1318645 0.9760107 -0.1732478
vn 0.07384995 0.001986247 -0.9972674
vn -0.1318747 -0.9759744 0.1734444
vn -0.07384779 -0.001968492 0.9972676
vn 0.1680617 0.962496 -0.2129712
vn 0.07625085 0.001996972 -0.9970867
vn 0.07625137 0.00200055 -0.9970866
vn -0.1680683 -0.9624583 0.2131364
vn -0.07624979 -0.00199236 0.9970868
vn -0.07625122 -0.002000866 0.9970866
vn 0.08765414 0.9883236 -0.1246321
vn 0.07128228 0.001949185 -0.9974543
vn -0.0876678 -0.9882939 0.1248575
vn -0.07128202 -0.001947172 0.9974543
vn -0.005409962 0.9997463 -0.02186275
vn 0.02740882 0.00146459 -0.9996232
vn 0.005402533 -0.9997404 0.02213472
vn -0.0274087 -0.001503113 0.9996232
vn -0.006752267 0.9997693 -0.02039222
vn -0.07776387 0.0002724502 -0.9969718
vn 0.006768715 -0.9997648 0.02060396
vn 0.07776432 -0.0003543539 0.9969717

usemtl Lit
f 3/3/1 4/4/1 2/2/1 1/1/1
f 7/7/2 8/8/2 6/6/2 5/5/2
f 10/11/3 7/12/3 5/10/3 9/9/3
f 8/15/4 12/16/4 11/14/4 6/13/4
f 12/19/5 10/20/5 9/18/5 11/17/5
f 13/23/6 14/24/6 8/22/6 7/21/6
f 15/27/7 13/28/7 7/26/7 10/25/7
f 14/31/8 16/32/8 12/30/8 8/29/8
f 16/35/9 15/36/9 10/34/9 12/33/9
f 1/39/10 2/40/10 14/38/10 13/37/10
f 3/41/7 1/42/7 13/28/7 15/27/7
f 2/43/8 4/44/8 16/32/8 14/31/8
f 4/47/11 3/48/11 15/46/11 16/45/11
f 19/51/12 20/52/12 18/50/12 17/49/12
f 22/55/13 19/56/13 17/54/13 21/53/13
f 20/59/14 24/60/14 23/58/14 18/57/14
f 24/63/15 22/64/15 21/62/15 23/61/15
f 25/67/17 26/68/18 20/66/17 19/65/16
f 27/71/20 25/72/21 19/70/20 22/69/19
f 26/75/23 28/76/24 24/74/23 20/73/22
f 28/79/26 27/80/27 22/78/26 24/77/25
f 29/83/29 30/84/30 26/82/29 25/81/28
f 31/87/32 29/88/33 25/86/32 27/85/31
f 30/91/34 32/92/35 28/90/34 26/89/34
f 32/95/37 31/96/38 27/94/37 28/93/36
f 33/99/39 34/100/39 30/98/39 29/97/39
f 35/103/40 33/104/40 29/102/40 31/101/40
f 34/107/41 36/108/41 32/106/41 30/105/41
f 36/111/42 35/112/42 31/110/42 32/109/42
f 38/116/43 21/115/43 17/114/43 37/113/43
f 18/117/44 23/120/44 40/119/44 39/118/44
f 38/121/45 40/124/47 23/123/45 21/122/46
f 17/126/49 18/125/48 39/128/50 37/127/48
f 11/132/51 42/131/51 41/130/51 6/129/51
f 38/116/52 37/113/52 41/130/52 42/131/52
f 9/134/53 5/133/53 44/136/53 43/135/53
f 43/135/54 44/136/54 39/118/54 40/119/54
f 42/138/55 43/137/55 40/124/55 38/121/55
f 11/140/56 9/139/56 43/137/56 42/138/56
f 41/144/57 44/143/57 5/142/57 6/141/57
f 37/127/58 39/128/58 44/143/58 41/144/58
f 48/148/59 47/147/59 45/145/59 46/146/59
f 49/151/61 50/152/62 35/150/61 36/149/60
f 50/155/63 51/156/63 33/154/63 35/153/63
f 51/159/65 52/160/66 34/158/65 33/157/64
f 52/163/67 49/164/67 36/162/67 34/161/67
f 53/167/69 54/168/70 50/166/69 49/165/68
f 54/171/71 55/172/71 51/170/71 50/169/71
f 55/175/73 56/176/74 52/174/73 51/173/72
f 56/179/75 53/180/75 49/178/75 52/177/75
f 57/183/77 58/184/78 54/182/77 53/181/76
f 58/187/79 59/188/79 55/186/79 54/185/79
f 59/191/81 60/192/82 56/190/81 55/189/80
f 60/195/83 57/196/83 53/194/83 56/193/83
f 61/199/84 62/200/84 58/198/84 57/197/84
f 62/203/85 63/204/85 59/202/85 58/201/85
f 63/207/86 64/208/86 60/206/86 59/205/86
f 64/211/87 61/212/87 57/210/87 60/209/87
f 65/215/88 66/216/88 62/214/88 61/213/88
f 66/219/90 67/220/90 63/218/90 62/217/89
f 67/223/91 68/224/91 64/222/91 63/221/91
f 68/227/92 65/228/93 61/226/92 64/225/92
f 69/231/94 70/232/94 66/230/94 65/229/94
f 70/235/95 71/236/95 67/234/95 66/233/95
f 71/239/96 72/240/96 68/238/96 67/237/96
f 72/243/97 69/244/97 65/242/97 68/241/97
f 73/247/98 74/248/98 70/246/98 69/245/98
f 74/251/99 75/252/99 71/250/99 70/249/99
f 75/255/100 76/256/100 72/254/100 71/253/100
f 76/259/101 73/260/101 69/258/101 72/257/101
f 46/263/102 45/264/102 74/262/102 73/261/102
f 45/267/103 47/268/103 75/266/103 74/265/103
f 47/271/104 48/272/104 76/270/104 75/269/104
f 48/275/105 46/276/105 73/274/105 76/273/105

